<svg width="1071" height="2373" viewBox="0 0 1071 2373" fill="none" xmlns="http://www.w3.org/2000/svg">
<g clip-path="url(#clip0_5_13)">
<rect width="1071" height="2372.88" fill="white"/>
<line x1="626.223" y1="2628.16" x2="760.4" y2="2227.44" stroke="black" stroke-opacity="0.5" stroke-width="2.41761"/>
<line x1="626.223" y1="254.675" x2="761.005" y2="-149.066" stroke="black" stroke-opacity="0.5" stroke-width="2.41761"/>
<line x1="187.758" y1="656.092" x2="626.554" y2="255.374" stroke="black" stroke-opacity="0.5" stroke-width="2.41761"/>
<line x1="761.425" y1="1093.12" x2="187.848" y2="662.787" stroke="black" stroke-opacity="0.5" stroke-width="2.41761"/>
<line x1="490.563" y1="1355.15" x2="189.571" y2="1795.15" stroke="black" stroke-opacity="0.5" stroke-width="2.41761"/>
<line x1="761.416" y1="2234.83" x2="187.838" y2="1795.43" stroke="black" stroke-opacity="0.5" stroke-width="2.41761"/>
<line x1="491.76" y1="1353.58" x2="761.323" y2="1100.34" stroke="black" stroke-opacity="0.5" stroke-width="2.41761"/>
<path d="M356.597 661.82C356.597 754.617 281.37 829.844 188.573 829.844C95.7764 829.844 20.5497 754.617 20.5497 661.82C20.5497 569.023 95.7764 493.796 188.573 493.796C281.37 493.796 356.597 569.023 356.597 661.82Z" fill="#FFC114"/>
<path d="M356.597 1794.47C356.597 1887.27 281.37 1962.49 188.573 1962.49C95.7764 1962.49 20.5497 1887.27 20.5497 1794.47C20.5497 1701.67 95.7764 1626.45 188.573 1626.45C281.37 1626.45 356.597 1701.67 356.597 1794.47Z" fill="#FFC114"/>
<path d="M761.546 255.36C761.546 329.631 701.338 389.839 627.067 389.839C552.796 389.839 492.587 329.631 492.587 255.36C492.587 181.089 552.796 120.88 627.067 120.88C701.338 120.88 761.546 181.089 761.546 255.36Z" fill="#8E1A41"/>
<path d="M627.369 1354.46C627.369 1430.57 565.672 1492.27 489.566 1492.27C413.459 1492.27 351.762 1430.57 351.762 1354.46C351.762 1278.36 413.459 1216.66 489.566 1216.66C565.672 1216.66 627.369 1278.36 627.369 1354.46Z" fill="#1C8E1A"/>
<path d="M881.218 1101.22C881.218 1167.31 827.639 1220.89 761.546 1220.89C695.453 1220.89 641.875 1167.31 641.875 1101.22C641.875 1035.13 695.453 981.549 761.546 981.549C827.639 981.549 881.218 1035.13 881.218 1101.22Z" fill="#F05A39"/>
<path d="M881.218 2233.87C881.218 2299.96 827.639 2353.54 761.546 2353.54C695.453 2353.54 641.875 2299.96 641.875 2233.87C641.875 2167.78 695.453 2114.2 761.546 2114.2C827.639 2114.2 881.218 2167.78 881.218 2233.87Z" fill="#F05A39"/>
</g>
<defs>
<clipPath id="clip0_5_13">
<rect width="1071" height="2372.88" fill="white"/>
</clipPath>
</defs>
</svg>
